<?xml version="1.0" encoding="iso-8859-1"?>
<!-- Uploaded to: SVG Repo, www.svgrepo.com, Generator: SVG Repo Mixer Tools -->
<svg fill="#000000" height="800px" width="800px" version="1.1" id="Layer_1" xmlns="http://www.w3.org/2000/svg" xmlns:xlink="http://www.w3.org/1999/xlink" 
	 viewBox="0 0 512.002 512.002" xml:space="preserve">
<g>
	<g>
		<g>
			<path d="M503.164,138.19c-17.109-46.267-56.225-79.605-104.632-89.18c-33.652-6.657-69.467-10.032-106.451-10.032h-72.158
				c-36.984,0-72.8,3.375-106.452,10.032C65.063,58.585,25.949,91.924,8.84,138.19c-17.097,46.233-9.093,96.957,21.41,135.687
				l114.472,145.346c27.737,35.218,67.217,54.315,111.28,53.79c0.594,0.007,1.184,0.011,1.776,0.01
				c43.311-0.001,82.142-19.058,109.505-53.8l114.472-145.346C512.255,235.146,520.26,184.422,503.164,138.19z M262.487,453.024
				c0.435,0,0.884,0,1.345,0C263.399,453.024,262.951,453.024,262.487,453.024z M265.129,453.024c0.282,0,0.565,0,0.849,0
				C265.7,453.024,265.423,453.024,265.129,453.024z M267.385,453.024c0.349,0,0.696,0,1.035,0
				C268.091,453.024,267.747,453.024,267.385,453.024z M466.041,261.502L351.57,406.847c-23.487,29.821-56.747,46.177-93.815,46.176
				c-0.055,0,0.293,0,0.915,0c-0.304,0-0.6,0-0.915,0c-0.627,0-1.255-0.017-1.882-0.01c-37.727,0.464-71.612-15.911-95.44-46.165
				L45.961,261.502c-26.162-33.218-33.027-76.723-18.364-116.375c14.676-39.687,48.229-68.284,89.754-76.497
				c32.377-6.405,66.887-9.652,102.571-9.652h72.158c35.684,0,70.193,3.247,102.57,9.652c41.525,8.213,75.078,36.811,89.754,76.497
				C499.067,184.779,492.203,228.284,466.041,261.502z"/>
			<path d="M167.252,127.405c1.35,5.451,7.133,8.768,12.523,7.19c5.075-1.486,8.162-6.868,6.891-11.999l-9.394-37.918
				c-1.328-5.361-6.753-8.632-12.111-7.302c-5.361,1.328-8.63,6.75-7.302,12.111L167.252,127.405z"/>
			<path d="M195.336,157.596c-1.328-5.361-6.754-8.634-12.111-7.302c-5.361,1.328-8.63,6.75-7.302,12.111l41.372,167
				c1.35,5.451,7.133,8.768,12.523,7.19c5.075-1.486,8.162-6.868,6.891-11.999L195.336,157.596z"/>
			<path d="M91.852,156.534c2.666,5.237,9.487,7.048,14.408,3.818c4.205-2.759,5.696-8.413,3.415-12.892l-15.54-30.525
				c-2.506-4.922-8.53-6.881-13.448-4.375c-4.922,2.505-6.881,8.527-4.375,13.448L91.852,156.534z"/>
			<path d="M128.001,183.459c-2.506-4.922-8.529-6.88-13.448-4.375c-4.922,2.505-6.881,8.527-4.375,13.448l57.021,112.004
				c1.766,3.469,5.277,5.465,8.919,5.465c1.526,0,3.076-0.351,4.529-1.09c4.922-2.505,6.881-8.527,4.375-13.448L128.001,183.459z"/>
			<path d="M64.787,211.872c-3.387-4.363-9.669-5.154-14.031-1.767c-4.362,3.386-5.153,9.668-1.767,14.031l20.114,25.91
				c3.608,4.649,10.664,5.133,14.883,1.027c3.599-3.503,3.993-9.327,0.915-13.291L64.787,211.872z"/>
			<path d="M108.254,267.864c-3.387-4.363-9.669-5.153-14.032-1.767c-4.362,3.386-5.153,9.668-1.767,14.031l70.646,91.004
				c3.609,4.649,10.664,5.132,14.883,1.026c3.599-3.503,3.993-9.326,0.916-13.291L108.254,267.864z"/>
			<path d="M256.888,71c-5.523,0-10,4.477-10,10v41c0,5.523,4.477,10,10,10c5.522,0,10-4.477,10-10V81
				C266.888,75.477,262.411,71,256.888,71z"/>
			<path d="M256.888,151c-5.523,0-10,4.477-10,10v109c0,5.523,4.477,10,10,10c5.522,0,10-4.477,10-10V161
				C266.888,155.477,262.411,151,256.888,151z"/>
			<path d="M333.551,134.714c-0.008-0.002-0.013-0.003-0.024-0.006c-1.219-0.302-1.837-0.455-2.082-0.516
				C331.88,134.3,333.276,134.646,333.551,134.714z"/>
			<path d="M331.33,134.163C331.308,134.158,331.31,134.159,331.33,134.163L331.33,134.163z"/>
			<path d="M331.444,134.192c-0.055-0.014-0.094-0.023-0.114-0.028C331.349,134.168,331.388,134.178,331.444,134.192z"/>
			<path d="M333.551,134.714C333.615,134.729,333.609,134.728,333.551,134.714L333.551,134.714z"/>
			<path d="M333.527,134.707c5.292,1.312,10.8-2.013,12.111-7.302l9.394-37.918c1.327-5.361-1.941-10.783-7.303-12.111
				c-5.363-1.327-10.782,1.941-12.111,7.302l-9.394,37.918C324.897,127.956,328.165,133.379,333.527,134.707z"/>
			<path d="M329.665,150.294c-5.362-1.33-10.782,1.941-12.111,7.302l-41.372,167c-1.27,5.132,1.817,10.513,6.892,11.999
				c5.39,1.578,11.171-1.739,12.523-7.19l41.372-167C338.294,157.044,335.026,151.622,329.665,150.294z"/>
			<path d="M329.665,150.294C335.026,151.622,324.302,148.964,329.665,150.294L329.665,150.294z"/>
			<path d="M407.3,160.762c-0.104-0.053-0.201-0.102-0.293-0.149C407.109,160.665,407.208,160.716,407.3,160.762z"/>
			<path d="M407.716,160.974C407.828,161.031,407.847,161.041,407.716,160.974L407.716,160.974z"/>
			<path d="M405.94,160.07c-0.054-0.027-0.1-0.051-0.135-0.069C405.842,160.021,405.889,160.044,405.94,160.07z"/>
			<path d="M407.007,160.613c-0.38-0.193-0.805-0.409-1.066-0.543C406.142,160.173,406.485,160.348,407.007,160.613z"/>
			<path d="M405.805,160.002c-0.018-0.009-0.033-0.017-0.047-0.024C405.772,159.985,405.787,159.993,405.805,160.002z"/>
			<path d="M407.588,160.909c-0.081-0.041-0.179-0.091-0.288-0.147C407.393,160.81,407.485,160.857,407.588,160.909
				c0.055,0.028,0.095,0.048,0.128,0.065C407.682,160.957,407.639,160.935,407.588,160.909c4.865,2.474,10.977,0.481,13.449-4.375
				l15.54-30.525c2.505-4.921,0.547-10.943-4.375-13.448c-4.925-2.506-10.942-0.547-13.449,4.375l-15.54,30.525
				C400.709,152.382,402.666,158.404,407.588,160.909z"/>
			<path d="M405.758,159.978C405.667,159.932,405.678,159.937,405.758,159.978L405.758,159.978z"/>
			<path d="M345.69,304.537l57.021-112.004c2.505-4.921,0.547-10.943-4.375-13.448c-4.924-2.507-10.944-0.547-13.449,4.375
				l-57.02,112.004c-3.32,6.52,1.548,14.538,8.904,14.538C340.413,310.002,343.925,308.005,345.69,304.537z"/>
			<path d="M429.755,251.813C425.392,248.427,431.579,253.229,429.755,251.813L429.755,251.813z"/>
			<path d="M462.132,210.105c-4.362-3.388-10.644-2.595-14.031,1.767l-20.114,25.91c-3.386,4.363-2.595,10.645,1.768,14.031
				c4.307,3.345,10.69,2.535,14.031-1.767l20.114-25.91C467.287,219.773,466.496,213.491,462.132,210.105z"/>
			<path d="M418.666,266.097C423.03,269.484,414.304,262.71,418.666,266.097L418.666,266.097z"/>
			<path d="M418.666,266.097c-4.362-3.388-10.646-2.595-14.031,1.767l-70.646,91.004c-3.078,3.965-2.684,9.788,0.916,13.291
				c4.219,4.106,11.273,3.623,14.883-1.026l70.646-91.004C423.821,275.766,423.03,269.484,418.666,266.097z"/>
		</g>
	</g>
</g>
</svg>